<?xml version="1.0" encoding="UTF-8"?>
<svg version="1.1" xmlns="http://www.w3.org/2000/svg" width="1000" height="1000">
<path d="M0 0 C330 0 660 0 1000 0 C1000 330 1000 660 1000 1000 C670 1000 340 1000 0 1000 C0 670 0 340 0 0 Z " fill="#FEFEFE" transform="translate(0,0)"/>
<path d="M0 0 C1.65533752 0.00140488 1.65533752 0.00140488 3.34411621 0.00283813 C66.42034196 0.11879968 134.22757756 11.86737975 181.3125 57.1875 C181.95574219 57.76757812 182.59898437 58.34765625 183.26171875 58.9453125 C196.61491897 71.33359616 206.49482277 89.80468709 211.3125 107.1875 C211.57708008 108.12198975 211.84166016 109.05647949 212.11425781 110.01928711 C214.22401665 118.19360744 214.77931824 126.00361846 214.70361328 134.38842773 C214.68759053 136.48813605 214.70352617 138.58589788 214.72265625 140.68554688 C214.74650657 154.29960878 212.67913179 167.18740691 207.5625 179.875 C207.21541992 180.75857178 206.86833984 181.64214355 206.51074219 182.55249023 C202.93036351 191.4733018 199.29163165 200.40502685 192.3125 207.1875 C192.33606567 206.14577637 192.33606567 206.14577637 192.36010742 205.08300781 C192.42333134 201.86792491 192.46176391 198.65297348 192.5 195.4375 C192.52513672 194.34566406 192.55027344 193.25382813 192.57617188 192.12890625 C192.67180261 181.35450984 190.63873707 171.65614196 185.6875 162.0625 C185.34267578 161.38582275 184.99785156 160.70914551 184.64257812 160.01196289 C181.38884269 153.88930318 177.33080789 148.97405655 172.3125 144.1875 C171.70019531 143.56746094 171.08789062 142.94742188 170.45703125 142.30859375 C155.83713181 128.37448917 135.68669644 123.23389514 116.3125 120.1875 C115.39597656 120.001875 114.47945312 119.81625 113.53515625 119.625 C38.79531041 109.47849972 -43.97704899 147.55294967 -110.6875 177.1875 C-111.97899345 177.7609285 -113.27049748 178.33433316 -114.56201172 178.90771484 C-115.21236893 179.19644974 -115.86272614 179.48518463 -116.53279114 179.78266907 C-161.04332102 199.53905841 -205.76829983 218.50675264 -251.875 234.25 C-252.77695099 234.55828735 -253.67890198 234.86657471 -254.60818481 235.1842041 C-274.11661967 241.8293521 -293.78276798 247.64989046 -313.75 252.75 C-314.6752951 252.98773132 -315.60059021 253.22546265 -316.55392456 253.47039795 C-331.1675648 257.21276026 -345.75766681 260.42728863 -360.66430664 262.78955078 C-362.7457928 263.1057359 -362.7457928 263.1057359 -364.6875 264.1875 C-366.17769241 264.44115749 -367.67558589 264.65038586 -369.17578125 264.8359375 C-370.0972998 264.95259766 -371.01881836 265.06925781 -371.96826172 265.18945312 C-373.46897217 265.37411133 -373.46897217 265.37411133 -375 265.5625 C-383.73661031 266.64127234 -383.73661031 266.64127234 -392.44140625 267.9453125 C-451.4451177 277.56171305 -515.87611841 276.43170674 -572.95703125 257.421875 C-576.07816818 256.38912184 -579.21057906 255.44065754 -582.36523438 254.51733398 C-614.92903365 244.82086667 -646.62856193 228.69490726 -673.6875 208.1875 C-674.26161621 207.75614746 -674.83573242 207.32479492 -675.42724609 206.88037109 C-682.12475167 201.82540615 -688.56448148 196.54720116 -694.75 190.875 C-695.27408447 190.39562988 -695.79816895 189.91625977 -696.33813477 189.42236328 C-699.76007673 186.22456598 -702.75040535 182.83596437 -705.6875 179.1875 C-701.64426902 180.73031182 -697.81852665 182.58914518 -693.9375 184.5 C-679.08952059 191.60841196 -664.41058268 194.41272032 -648 194.4375 C-647.29453033 194.43983643 -646.58906067 194.44217285 -645.86221313 194.44458008 C-634.79785962 194.45830041 -624.02248955 193.64825956 -613.03637695 192.26806641 C-593.59990821 189.86575691 -578.81191495 190.45423528 -562.0703125 201.12890625 C-554.34623539 205.82935502 -546.76482508 206.60894718 -537.8984375 204.53515625 C-526.3791351 200.38036142 -518.79557781 190.96979939 -513.546875 180.2421875 C-510.29395084 172.46474156 -509.05013748 164.10945784 -511.33984375 155.828125 C-513.16610886 152.15991868 -515.72311561 149.93274 -519.60546875 148.625 C-530.78328225 146.27619116 -542.18207587 149.97893856 -552.87011719 153.12402344 C-572.61391826 158.93231671 -592.10211292 161.67109596 -612.625 161.625 C-613.37009827 161.62504028 -614.11519653 161.62508057 -614.88287354 161.62512207 C-628.19066654 161.58317531 -641.30384852 160.48388098 -654.1875 156.9375 C-654.98591309 156.72061523 -655.78432617 156.50373047 -656.60693359 156.28027344 C-681.85223063 149.19970539 -701.9178359 136.19934852 -720.6875 118.1875 C-721.3052832 117.60226562 -721.92306641 117.01703125 -722.55957031 116.4140625 C-737.67441155 102.03743995 -755.70121162 83.32674473 -762.6875 63.1875 C-761.90439453 63.71537109 -761.90439453 63.71537109 -761.10546875 64.25390625 C-758.63918281 65.9081751 -756.16398633 67.54854257 -753.6875 69.1875 C-752.42292969 70.03441406 -752.42292969 70.03441406 -751.1328125 70.8984375 C-732.41190042 83.1753561 -712.37335883 89.4005823 -690.6875 94.1875 C-689.82294189 94.38907715 -688.95838379 94.5906543 -688.06762695 94.79833984 C-677.55490058 96.92757149 -666.79961287 96.49045675 -656.125 96.4375 C-654.56552643 96.4343428 -654.56552643 96.4343428 -652.97454834 96.43112183 C-626.94148407 98.35458019 -626.94148407 98.35458019 -603.6875 93.1875 C-604.63625 92.465625 -605.585 91.74375 -606.5625 91 C-614.54629386 84.11075852 -620.42319617 74.93616121 -625.875 66 C-626.27380371 65.35232666 -626.67260742 64.70465332 -627.08349609 64.03735352 C-628.01883159 62.45873798 -628.86266711 60.82656382 -629.6875 59.1875 C-629.3575 58.5275 -629.0275 57.8675 -628.6875 57.1875 C-627.79224609 57.89712891 -627.79224609 57.89712891 -626.87890625 58.62109375 C-613.41128664 68.88690186 -598.89011797 75.47965968 -582.6875 80.1875 C-581.10195313 80.66316406 -581.10195313 80.66316406 -579.484375 81.1484375 C-565.46291227 85.01774825 -550.83650232 85.57069603 -536.375 85.5 C-535.58714111 85.49817719 -534.79928223 85.49635437 -533.98754883 85.49447632 C-495.46310699 85.34694858 -457.09679936 80.03283749 -419.34375 72.66015625 C-411.81131424 71.19136955 -404.25541996 69.89594073 -396.6875 68.625 C-385.19948082 66.67213638 -373.80044085 64.44887374 -362.41113281 61.98876953 C-358.82452977 61.21698674 -355.23608167 60.45452683 -351.64694214 59.69465637 C-333.13287791 55.77415948 -314.64530518 51.76559547 -296.20788574 47.4984436 C-285.17966403 44.94830428 -274.12424711 42.58445547 -263.03051758 40.33300781 C-255.34202261 38.76390548 -247.69872541 37.05517424 -240.0625 35.25 C-225.35968138 31.78776018 -210.54884628 28.89531751 -195.72949219 25.98388672 C-191.20804842 25.09469864 -186.69047504 24.18668086 -182.17333984 23.27587891 C-178.15534608 22.46717964 -174.13533267 21.6687682 -170.11523438 20.87060547 C-167.65498461 20.38030783 -165.19539512 19.88726551 -162.73632812 19.39111328 C-131.16241769 13.02752368 -99.51371615 7.94785251 -67.5625 3.875 C-66.06462952 3.68114212 -66.06462952 3.68114212 -64.53649902 3.48336792 C-42.99653439 0.71313683 -21.70533583 -0.02392618 0 0 Z " fill="#ED2428" transform="translate(774.6875,363.8125)"/>
<path d="M0 0 C-0.64066406 0.556875 -1.28132812 1.11375 -1.94140625 1.6875 C-24.93852409 21.97705851 -36.25600474 49.83145976 -40 80 C-40.20680478 84.5819792 -40.22793001 89.16235246 -40.24023438 93.74829102 C-40.24983701 95.90096246 -40.28087185 98.05263408 -40.3125 100.20507812 C-40.41234149 113.07301419 -39.03578659 125.90794857 -33.8125 137.8125 C-33.51134277 138.51624756 -33.21018555 139.21999512 -32.89990234 139.94506836 C-27.26289577 152.59286662 -18.41805073 162.19819695 -6.43359375 169.08984375 C-5.96050781 169.39019531 -5.48742187 169.69054687 -5 170 C-5 170.33 -5 170.66 -5 171 C-18.51571143 173.37477399 -32.03321736 175.35847528 -45.6875 176.75 C-46.90195801 176.87737549 -48.11641602 177.00475098 -49.36767578 177.13598633 C-57.61740063 177.93846468 -65.71479052 178.14226249 -74 178 C-73.7834375 176.97390625 -73.566875 175.9478125 -73.34375 174.890625 C-71.10366404 163.05776288 -70.66514016 151.37994838 -70.625 139.375 C-70.61376099 138.20064392 -70.61376099 138.20064392 -70.60229492 137.00256348 C-70.40380774 124.18403885 -70.40380774 124.18403885 -74 112 C-74.66 111.34 -75.32 110.68 -76 110 C-78.52153061 109.96307689 -78.52153061 109.96307689 -81 111 C-89.3019136 122.19792997 -89.194935 136.83401068 -89.1875 150.125 C-89.1884668 151.90837769 -89.1884668 151.90837769 -89.18945312 153.7277832 C-89.13796904 162.30865925 -88.58284464 170.56287278 -87 179 C-113.72182547 179.41692719 -139.71832744 178.01263438 -166 173 C-163.54689412 170.45205187 -161.11995257 168.79586054 -158.0625 167 C-138.91605118 154.90085886 -124.54650962 134.83183382 -119.46044922 112.64648438 C-116.4640724 97.76903164 -115.52150323 80.04384662 -122 66 C-122.350625 65.20207031 -122.70125 64.40414062 -123.0625 63.58203125 C-126.24787846 57.15597262 -131.00659899 52.08054588 -136 47 C-136.54269531 46.44441406 -137.08539063 45.88882813 -137.64453125 45.31640625 C-148.93400582 34.77003634 -165.09349398 29.1202227 -179 23 C-179 22.67 -179 22.34 -179 22 C-178.13874512 21.9906543 -177.27749023 21.98130859 -176.39013672 21.97167969 C-147.52631027 21.58424578 -118.76167099 19.59246286 -90.30859375 14.515625 C-87.46170613 14.0719542 -84.87147901 13.88977048 -82 14 C-82.20496094 14.6290625 -82.40992188 15.258125 -82.62109375 15.90625 C-82.89050781 16.7621875 -83.15992188 17.618125 -83.4375 18.5 C-83.70433594 19.3353125 -83.97117187 20.170625 -84.24609375 21.03125 C-86.33115028 29.24183529 -86.21777839 37.62807771 -86.24023438 46.04345703 C-86.24991673 48.23118468 -86.28100383 50.4179614 -86.3125 52.60546875 C-86.47705323 67.75846876 -86.47705323 67.75846876 -80 81 C-77.6087705 81.2113453 -77.6087705 81.2113453 -75 80 C-67.03260419 69.24680145 -67.72766986 52.4281541 -67.6875 39.8125 C-67.68202148 38.5541333 -67.67654297 37.2957666 -67.67089844 35.99926758 C-67.73288134 27.83622634 -68.52606061 20.02778093 -70 12 C-62.82901533 10.03779026 -55.58780649 8.90929608 -48.25 7.75 C-36.32316185 5.84276114 -24.55484531 3.52361444 -12.78613281 0.79199219 C-11.68881836 0.54352539 -10.59150391 0.29505859 -9.4609375 0.0390625 C-8.01920166 -0.29810791 -8.01920166 -0.29810791 -6.54833984 -0.64208984 C-3.99307845 -1.00097212 -2.42004072 -0.8242529 0 0 Z " fill="#F7EC24" transform="translate(410,442)"/>
<path d="M0 0 C10.90700784 9.46555306 17.18870032 29.19311186 19 43 C20.57176332 67.20823699 12.49605468 87.76196623 2.4453125 109.359375 C-0.51471156 116.81543562 -1.30836767 123.77273401 -1.1875 131.75 C-1.18685547 132.57371094 -1.18621094 133.39742187 -1.18554688 134.24609375 C-1.15603936 138.31813129 -0.87642121 142.00824017 0 146 C-3.57457139 147.70653215 -7.16087227 149.38682599 -10.75 151.0625 C-11.76578125 151.54783203 -12.7815625 152.03316406 -13.828125 152.53320312 C-14.8078125 152.98759766 -15.7875 153.44199219 -16.796875 153.91015625 C-17.69760742 154.33433838 -18.59833984 154.75852051 -19.52636719 155.19555664 C-22.24132496 156.07848063 -23.38931839 156.07328419 -26 155 C-36.86555065 144.76645006 -41.1895153 127.28472427 -43 113 C-54.18007685 129.2362352 -58.0975523 146.45512641 -57 166 C-56.69153949 167.33930616 -56.36405814 168.67472623 -56 170 C-65.14632143 174.33717312 -74.40130044 178.27813524 -83.8125 182 C-85.13640563 182.52560353 -86.46029876 183.05123854 -87.78417969 183.5769043 C-91.52014972 185.05801063 -95.25980124 186.52960651 -99 188 C-99.9576123 188.37850098 -100.91522461 188.75700195 -101.90185547 189.14697266 C-104.18103361 190.0450172 -106.46390459 190.93224542 -108.75 191.8125 C-109.94109375 192.27269531 -111.1321875 192.73289062 -112.359375 193.20703125 C-115 194 -115 194 -117 193 C-116.5153125 192.40316406 -116.030625 191.80632812 -115.53125 191.19140625 C-94.28258066 163.69072458 -87.3807393 125.10147924 -91.5078125 91.1953125 C-93.74896446 76.4143409 -99.74013114 60.23624442 -111 50 C-111 49.34 -111 48.68 -111 48 C-111.57878906 47.73703125 -112.15757812 47.4740625 -112.75390625 47.203125 C-115.11313426 45.93939939 -116.90297172 44.48383984 -118.9375 42.75 C-126.05373886 37.10649269 -134.40147706 33.74585515 -143 31 C-140.24214216 28.24214216 -137.18843598 27.96878871 -133.4921875 27.1953125 C-132.35476608 26.94743484 -132.35476608 26.94743484 -131.19436646 26.69454956 C-128.75603327 26.16435237 -126.3156995 25.64418494 -123.875 25.125 C-120.7049415 24.44371833 -117.53586392 23.7579914 -114.3671875 23.0703125 C-113.58587967 22.90153091 -112.80457184 22.73274933 -111.99958801 22.55885315 C-105.39947778 21.11967866 -98.85712706 19.49260224 -92.31860352 17.79711914 C-86.91937069 16.50023875 -82.74623414 15.53565369 -77.70703125 18.22265625 C-66.15347117 26.40884706 -60.63881925 38.9470225 -57.62402344 52.33764648 C-56.5709176 58.5182571 -56.64622264 64.62241378 -56.75 70.875 C-56.75515625 72.14085937 -56.7603125 73.40671875 -56.765625 74.7109375 C-56.81478057 80.56045003 -56.93425664 86.24154796 -58 92 C-47.000359 81.97091556 -40.73408777 67.65005182 -39 53 C-32.27063891 54.41215714 -28.91803224 58.81426457 -25.25 64.3125 C-22.45750063 68.86186984 -20.89069649 72.75478734 -20 78 C-19.34634601 76.46163292 -18.70246397 74.91911234 -18.0625 73.375 C-17.52302734 72.08722656 -17.52302734 72.08722656 -16.97265625 70.7734375 C-12.56964284 58.2186603 -13.41093474 40.93652876 -19 29 C-24.67381411 18.83022687 -32.10569816 12.0601449 -43 8 C-43 7.67 -43 7.34 -43 7 C-37.68244841 5.8297045 -32.36228631 4.67245334 -27.03930664 3.52709961 C-25.22961421 3.13580162 -23.42068083 2.7409756 -21.61254883 2.3425293 C-19.01055254 1.7697898 -16.40607326 1.20987332 -13.80078125 0.65234375 C-12.99538406 0.47219223 -12.18998688 0.29204071 -11.36018372 0.10643005 C-7.29817125 -0.74955865 -4.04584305 -1.37321885 0 0 Z " fill="#F7ED24" transform="translate(636,392)"/>
<path d="M0 0 C10.58840676 5.36876963 16.32303043 14.356465 20.3125 25.375 C26.4719388 46.82889069 25.02583205 68.58392304 21.3125 90.375 C21.17859863 91.16277832 21.04469727 91.95055664 20.90673828 92.76220703 C17.76301076 110.25657436 10.34847166 128.83696858 -4.6875 139.375 C-12.10223943 143.7234938 -19.0439861 145.55574527 -27.6875 144.375 C-38.4137172 140.16223933 -44.5700546 131.68517106 -49.33984375 121.5859375 C-51.56252633 116.29015467 -53.24491422 110.93034236 -54.6875 105.375 C-55.0278125 104.08916016 -55.0278125 104.08916016 -55.375 102.77734375 C-61.49540291 75.27803347 -54.9833023 41.40242456 -40.08203125 17.8359375 C-38.7008109 15.91778163 -37.2527086 14.14472919 -35.6875 12.375 C-35.21441406 11.7871875 -34.74132812 11.199375 -34.25390625 10.59375 C-25.70601091 0.87345006 -12.41025579 -4.90978133 0 0 Z " fill="#F7EC24" transform="translate(434.6875,455.625)"/>
<path d="M0 0 C-0.33 0.66 -0.66 1.32 -1 2 C-1.66 2 -2.32 2 -3 2 C-3.26554688 2.59039062 -3.53109375 3.18078125 -3.8046875 3.7890625 C-5.03090304 6.05716052 -6.33351588 7.53352098 -8.125 9.375 C-22.15556928 25.18862079 -27.6610149 46.44042687 -27.2421875 67.2421875 C-26.05449707 85.67054547 -21.74942988 101.95064292 -8 115 C-7.34 115.66 -6.68 116.32 -6 117 C-7.04414062 117.40089844 -8.08828125 117.80179687 -9.1640625 118.21484375 C-19.13703987 122.0614652 -29.04898118 126.03415324 -38.91259766 130.15405273 C-39.80769043 130.52473877 -40.7027832 130.8954248 -41.625 131.27734375 C-42.42164063 131.60984131 -43.21828125 131.94233887 -44.0390625 132.28491211 C-46 133 -46 133 -48 133 C-47.835 131.845 -47.67 130.69 -47.5 129.5 C-45.96381403 115.34037283 -45.60742148 99.56738348 -53 87 C-54.95257197 87.31328301 -54.95257197 87.31328301 -57 88 C-62.35364655 96.2363793 -62.29635533 105.88739883 -62.1875 115.375 C-62.18685547 116.43460937 -62.18621094 117.49421875 -62.18554688 118.5859375 C-62.14775866 125.43820135 -61.73645097 132.18804037 -61 139 C-66.58505547 141.53062104 -72.17184521 144.05735897 -77.76025391 146.58056641 C-79.65982047 147.43888428 -81.5589148 148.29824806 -83.45751953 149.15869141 C-86.19178787 150.39763437 -88.92775082 151.63276518 -91.6640625 152.8671875 C-92.50804596 153.25059296 -93.35202942 153.63399841 -94.22158813 154.02902222 C-98.4271449 155.92180057 -102.58228513 157.64406771 -107 159 C-105.16614417 153.00667229 -102.63632144 147.32227141 -100.1875 141.5625 C-94.4617004 127.92515241 -89.70266046 114.59436648 -87 100 C-86.79375 98.989375 -86.5875 97.97875 -86.375 96.9375 C-81.64691948 71.19572828 -86.46695294 45.76516173 -101 24 C-102.83817936 21.66447047 -104.69730773 19.49433277 -106.78515625 17.3828125 C-108 16 -108 16 -108 14 C-70.23919553 6.84988013 -70.23919553 6.84988013 -61 7 C-61.144375 7.69480469 -61.28875 8.38960938 -61.4375 9.10546875 C-64.19536285 24.21625893 -66.14842199 44.29583574 -58 58 C-56.11341126 58.03525132 -56.11341126 58.03525132 -54 57 C-45.81829599 45.44935904 -46.83871791 29.84564571 -46.9375 16.3125 C-46.94201172 15.12205078 -46.94652344 13.93160156 -46.95117188 12.70507812 C-46.96282548 9.80333064 -46.97918441 6.90169374 -47 4 C-41.43201158 3.42583102 -35.86357342 2.85631742 -30.29467773 2.29101562 C-28.40229603 2.09826855 -26.51004086 1.90427472 -24.61791992 1.70898438 C-21.89013884 1.42766625 -19.16192639 1.15091129 -16.43359375 0.875 C-15.59477158 0.78750488 -14.7559494 0.70000977 -13.89170837 0.60986328 C-9.23261567 0.14364621 -4.68234757 -0.08798304 0 0 Z " fill="#F7EC23" transform="translate(751,375)"/>
<path d="M0 0 C2.01316442 1.42958174 3.8139719 2.9446927 5.6328125 4.61328125 C6.30828125 5.19851563 6.98375 5.78375 7.6796875 6.38671875 C13.12236141 11.39970788 16.41863055 16.99011844 19.6328125 23.61328125 C29.2239779 24.42609188 37.2062282 20.97959854 45.6328125 16.61328125 C46.33107467 24.77519014 45.46988537 30.8615337 40.6328125 37.61328125 C37.00766654 41.4716627 33.26288487 44.74819613 28.57543945 47.23583984 C25.35740867 49.83578872 24.81651615 51.20576215 24.34317017 55.25030518 C24.25837906 56.33490021 24.25837906 56.33490021 24.171875 57.44140625 C24.09158051 58.19041199 24.01128601 58.93941772 23.92855835 59.71112061 C23.67913309 62.09338509 23.46803166 64.4772697 23.2578125 66.86328125 C23.09496607 68.48332802 22.92962877 70.10312647 22.76171875 71.72265625 C22.35650549 75.68390179 21.98560676 79.64703766 21.6328125 83.61328125 C29.52845814 81.82880095 29.52845814 81.82880095 35.5078125 76.73828125 C36.05308594 76.03960938 36.59835937 75.3409375 37.16015625 74.62109375 C37.64613281 73.95851563 38.13210938 73.2959375 38.6328125 72.61328125 C39.4371875 71.62328125 40.2415625 70.63328125 41.0703125 69.61328125 C41.84375 68.62328125 41.84375 68.62328125 42.6328125 67.61328125 C42.23249481 74.57624416 40.96565342 80.5576313 38.4453125 87.05078125 C38.12925049 87.87916504 37.81318848 88.70754883 37.48754883 89.56103516 C29.38922113 110.33880937 15.29838824 128.92103758 -5.5546875 138.11328125 C-10.06782806 139.76105147 -14.5966501 140.49747568 -19.3671875 139.61328125 C-21.78930399 137.19116476 -21.68423845 136.49854599 -21.73046875 133.16796875 C-21.60678434 127.16873701 -19.73800771 122.26443851 -17.5546875 116.73828125 C-13.59667026 106.08700347 -11.52468745 95.88297684 -10.3671875 84.61328125 C-10.23828125 83.55496094 -10.109375 82.49664063 -9.9765625 81.40625 C-7.21010403 55.37969991 -9.48614139 24.86238014 -26.3671875 3.61328125 C-29.77925454 0.75497591 -33.39795896 -1.40210448 -37.3671875 -3.38671875 C-37.3671875 -4.04671875 -37.3671875 -4.70671875 -37.3671875 -5.38671875 C-24.36873617 -8.43050198 -11.54035356 -6.76043814 0 0 Z " fill="#F7EC23" transform="translate(477.3671875,449.38671875)"/>
<path d="M0 0 C4.33460571 2.49217577 7.37862946 5.88225892 9.625 10.375 C11.07254699 22.07402729 6.73660993 34.16674013 -0.375 43.375 C-5.99200332 49.700905 -12.2562833 55.36772369 -18.6875 60.84765625 C-22.99668963 64.74787186 -26.20936503 68.3211264 -26.6875 74.25 C-26.63263374 77.26215749 -26.4333897 78.27924089 -24.8125 80.9375 C-22.36211632 82.66074157 -22.36211632 82.66074157 -19 82.375 C-12.19773454 80.49851298 -8.57266648 76.78158917 -4.5625 71.125 C-3.18771883 69.18995613 -1.79568191 67.27721831 -0.375 65.375 C-0.045 65.375 0.285 65.375 0.625 65.375 C0.22463584 78.90730877 -2.09989 93.39779396 -12.328125 103.2578125 C-18.95407088 108.49281555 -25.00740993 109.92929037 -33.40625 109.7421875 C-39.01421509 109.04857076 -42.41638699 106.64790207 -46.0546875 102.42578125 C-57.28198923 86.86954477 -57.60866023 65.86120422 -54.76171875 47.53125 C-51.44003444 31.20389407 -42.02452774 14.17341098 -28.375 4.375 C-19.54652941 -0.69611555 -9.94469605 -4.56508904 0 0 Z " fill="#F8EC23" transform="translate(788.375,376.625)"/>
<path d="M0 0 C4.0168722 2.80246898 7.07799542 5.16172156 8.171875 10.03125 C8.73718205 19.70428171 4.83513319 28.90739389 -1.5 36.0625 C-3.0841752 37.68641204 -4.68924573 39.2901508 -6.3125 40.875 C-7.19164062 41.76574219 -8.07078125 42.65648437 -8.9765625 43.57421875 C-12.13123846 46.76146511 -15.32717608 49.90534377 -18.5234375 53.05078125 C-20.44866103 55.01383668 -21.48711601 56.24877822 -22.3125 58.875 C-22.16023843 62.5264737 -22.16023843 62.5264737 -21.3125 65.875 C-18.25480385 67.40384808 -15.60694887 67.49991387 -12.3125 66.875 C-5.05150523 63.6754397 0.40521315 58.68846653 5.6875 52.875 C6.6875 54.875 6.6875 54.875 5.71875 58.18359375 C0.8328336 71.74453838 -4.68271236 83.67318903 -18.25 90.3125 C-24.57071035 91.4734468 -30.05083431 92.23016003 -35.625 88.5 C-39.99806434 84.77185222 -42.2368764 80.15255458 -44.3125 74.875 C-44.67988281 74.03066406 -45.04726563 73.18632812 -45.42578125 72.31640625 C-50.26343838 53.5411819 -45.79085833 33.10249643 -36.38427734 16.63574219 C-31.52735518 8.65667097 -24.34111273 2.13518135 -15.3203125 -0.765625 C-10.09737842 -1.70046923 -5.03126828 -1.70873262 0 0 Z " fill="#F8EC23" transform="translate(843.3125,381.125)"/>
<path d="M0 0 C6.49878391 1.35090765 12.75103319 3.07830246 19.0625 5.125 C20.3609082 5.54072266 20.3609082 5.54072266 21.68554688 5.96484375 C23.7915314 6.63968962 25.89628687 7.31811341 28 8 C27.31122037 12.88268229 26.05980626 17.42570472 24.625 22.125 C24.17471337 23.65072691 23.72549714 25.17677013 23.27734375 26.703125 C22.54612272 29.18268308 21.79270319 31.64709122 21.00390625 34.109375 C19.13571676 40.43797863 18.72516664 46.4410656 18.6875 53 C18.68194092 53.82612793 18.67638184 54.65225586 18.6706543 55.50341797 C18.72035669 59.62999129 18.93943119 62.34132395 21 66 C26.48576958 66.46249155 26.48576958 66.46249155 31.375 64.5 C31.91125 64.005 32.4475 63.51 33 63 C33.66 63 34.32 63 35 63 C35.268125 62.38125 35.53625 61.7625 35.8125 61.125 C37 59 37 59 40 57 C40 66.9 40 76.8 40 87 C32.58980531 87 32.58980531 87 29 86 C27.62663535 85.9174057 26.24986258 85.88212069 24.87402344 85.88647461 C23.67323151 85.88658791 23.67323151 85.88658791 22.44818115 85.88670349 C21.59387512 85.89186478 20.73956909 85.89702606 19.859375 85.90234375 C18.53610199 85.90446617 18.53610199 85.90446617 17.18609619 85.90663147 C14.37402935 85.91221999 11.5620427 85.92477039 8.75 85.9375 C6.84114698 85.94251648 4.93229272 85.94707913 3.0234375 85.95117188 C-1.65107247 85.96218566 -6.32552265 85.97944242 -11 86 C-10.72202576 85.44713318 -10.44405151 84.89426636 -10.15765381 84.324646 C-1.03327721 66.13467688 3.16920524 49.94926899 3.25 29.4375 C3.2809375 27.51454102 3.2809375 27.51454102 3.3125 25.55273438 C3.34871297 16.58549781 2.22885769 8.67422332 0 0 Z " fill="#F7EC24" transform="translate(857,383)"/>
<path d="M0 0 C8.63902889 3.8980984 14.164412 10.17688574 17.73046875 18.90234375 C18.74062858 22.43484207 18.640598 25.50427756 18.375 29.15625 C17.715 28.475625 17.055 27.795 16.375 27.09375 C14.08197167 24.82026453 11.75311691 22.59069451 9.375 20.40625 C8.735625 19.81328125 8.09625 19.2203125 7.4375 18.609375 C5.07710193 16.94636727 3.21344693 16.5307673 0.375 16.15625 C-0.57520416 18.396085 -0.57520416 18.396085 -0.625 21.15625 C0.99339621 22.92703757 2.61943054 24.53136394 4.375 26.15625 C5.45372751 27.20504519 6.5291244 28.25727446 7.6015625 29.3125 C8.1584375 29.86035156 8.7153125 30.40820312 9.2890625 30.97265625 C9.85367188 31.52824219 10.41828125 32.08382812 11 32.65625 C11.57234375 33.21183594 12.1446875 33.76742187 12.734375 34.33984375 C16.79501212 38.35326416 20.03744353 41.58352232 20.80859375 47.4609375 C20.82219211 59.88983829 20.82219211 59.88983829 16.375 65.15625 C12.32637428 68.14452136 8.43629207 68.77700257 3.515625 68.65625 C-2.44530601 67.70724606 -13.29853929 65.48271071 -17.625 61.15625 C-17.71185603 59.59452255 -17.73202219 58.02895656 -17.72265625 56.46484375 C-17.71782227 55.04848633 -17.71782227 55.04848633 -17.71289062 53.60351562 C-17.70451172 52.61029297 -17.69613281 51.61707031 -17.6875 50.59375 C-17.68298828 49.59666016 -17.67847656 48.59957031 -17.67382812 47.57226562 C-17.66200007 45.10020151 -17.64551849 42.62825482 -17.625 40.15625 C-16.965 40.15625 -16.305 40.15625 -15.625 40.15625 C-14.75875 41.5175 -14.75875 41.5175 -13.875 42.90625 C-11.4223035 46.44903383 -9.41386343 48.14583267 -5.625 50.15625 C-2.87241188 50.49334062 -2.87241188 50.49334062 -0.625 50.15625 C-0.1934641 47.90251389 -0.1934641 47.90251389 -0.625 45.15625 C-2.27650868 43.02574503 -3.85700899 41.23004124 -5.75 39.34375 C-6.76554608 38.28496844 -7.77857955 37.22377105 -8.7890625 36.16015625 C-9.27922852 35.64727051 -9.76939453 35.13438477 -10.27441406 34.60595703 C-13.01862992 31.66033994 -15.38453978 28.49407849 -17.625 25.15625 C-18.24375 24.24875 -18.8625 23.34125 -19.5 22.40625 C-21.22391504 17.426051 -21.34037593 12.36727274 -20.625 7.15625 C-16.2791786 -1.43800746 -8.82202638 -2.83565134 0 0 Z " fill="#F7EA24" transform="translate(922.625,410.84375)"/>
<path d="M0 0 C7.49969254 12.24949781 7.20815213 25.16683743 7.1875 39.125 C7.18689575 39.87444885 7.1862915 40.62389771 7.18566895 41.39605713 C7.08977337 85.31038375 7.08977337 85.31038375 -1.4375 95.3125 C-4 97 -4 97 -6.625 97.0625 C-10.46630648 95.34402079 -11.56510016 93.0630885 -13.125 89.25 C-15.0743033 82.00973059 -15.16998354 74.76620565 -15.203125 67.31640625 C-15.20882507 66.30263412 -15.21452515 65.288862 -15.22039795 64.24436951 C-15.22980682 62.10376006 -15.23636548 59.9631364 -15.24023438 57.82250977 C-15.24987745 54.60340919 -15.28091506 51.3849651 -15.3125 48.16601562 C-15.49836474 11.98597598 -15.49836474 11.98597598 -6.54296875 1.25390625 C-4.37205233 -0.51030684 -2.71140727 -0.21984383 0 0 Z " fill="#ED2627" transform="translate(423,479)"/>
<path d="M0 0 C2.1875 1.0625 2.1875 1.0625 4.1875 4.0625 C5.20914265 9.29841858 3.15903797 12.82389281 0.44140625 17.1328125 C-3.45600497 22.19877162 -8.06257106 26.54476839 -12.66796875 30.9609375 C-14.97355956 33.18282257 -17.00907586 35.39999018 -18.8125 38.0625 C-19.53238431 25.82446673 -16.13607999 13.3911523 -8.04296875 4.01171875 C-5.31820088 1.4294224 -3.82072316 0.08490496 0 0 Z " fill="#ED2827" transform="translate(776.8125,391.9375)"/>
<path d="M0 0 C2 3 2 3 2 6.1875 C-0.29755429 14.94692572 -7.67275137 20.88968561 -14 27 C-15.00220994 27.99778517 -16.00316955 28.99684047 -17 30 C-17.58751437 19.42474129 -14.28889563 10.51621283 -8 2 C-4.79191085 -0.1387261 -3.72301503 -0.47730962 0 0 Z " fill="#ED2B27" transform="translate(835,394)"/>
<path d="M0 0 C3 0.25 3 0.25 5 2.25 C5.25 5.25 5.25 5.25 5 8.25 C3 10.25 3 10.25 0 10.5 C-3 10.25 -3 10.25 -5 8.25 C-5.25 5.25 -5.25 5.25 -5 2.25 C-3 0.25 -3 0.25 0 0 Z " fill="#F28125" transform="translate(956,483.75)"/>
</svg>
