<?xml version="1.0" encoding="UTF-8"?>
<svg version="1.1" xmlns="http://www.w3.org/2000/svg" width="50" height="50">
<path d="M0 0 C4.31258558 -1.05614341 4.31258558 -1.05614341 7 0 C9.12324737 2.93378163 10.71778251 5.93614321 12.32421875 9.1796875 C14.03286928 12.05531847 14.89999155 12.93289469 18 14 C17.95875 12.88625 17.9175 11.7725 17.875 10.625 C18 7 18 7 20 5 C23.5 4.75 23.5 4.75 27 5 C29 7 29 7 29.25 10.5 C29 14 29 14 27 16 C24.875 16.625 24.875 16.625 23 17 C23.94875 17.680625 24.8975 18.36125 25.875 19.0625 C29.31757645 21.92860728 30.20754046 24.56222655 31 29 C31.125 31.9375 31.125 31.9375 31 34 C28.69 34 26.38 34 24 34 C23.67 33.01 23.34 32.02 23 31 C22.01 32.485 22.01 32.485 21 34 C19.12060547 34.34057617 19.12060547 34.34057617 16.8671875 34.29296875 C16.06152344 34.28330078 15.25585938 34.27363281 14.42578125 34.26367188 C13.58402344 34.23853516 12.74226563 34.21339844 11.875 34.1875 C10.60076172 34.16719727 10.60076172 34.16719727 9.30078125 34.14648438 C7.20025163 34.11108219 5.10004707 34.05727401 3 34 C3.55542091 30.81449774 4.22138125 28.53169351 5.625 25.5625 C7.59072065 20.46949649 6.56316523 17.42897326 4.58984375 12.421875 C4.04582968 11.19489387 3.49494158 9.97093934 2.9375 8.75 C0 2.24313501 0 2.24313501 0 0 Z " fill="#F9AF04" transform="translate(12,14)"/>
<path d="M0 0 C0 0.66 0 1.32 0 2 C1.32 1.67 2.64 1.34 4 1 C4 5.62 4 10.24 4 15 C2.68 14.67 1.36 14.34 0 14 C0 14.66 0 15.32 0 16 C-2.86996766 15.57481961 -4.03572537 14.96824411 -6.25 13 C-9.92721728 10.32566016 -12.50614577 10.30466808 -17 10 C-17 10.99 -17 11.98 -17 13 C-17.66 13 -18.32 13 -19 13 C-19 9.7 -19 6.4 -19 3 C-18.34 3 -17.68 3 -17 3 C-17 3.99 -17 4.98 -17 6 C-10.10547523 5.64338665 -5.68135305 0 0 0 Z " fill="#FAAF04" transform="translate(26,1)"/>
</svg>
