<?xml version="1.0" encoding="UTF-8"?>
<svg version="1.1" xmlns="http://www.w3.org/2000/svg" width="30" height="30">
<path d="M0 0 C2.0625 1.375 2.0625 1.375 4 3 C5.19625 3.33 6.3925 3.66 7.625 4 C11 5 11 5 13 8 C13.68093525 15.1498201 13.68093525 15.1498201 11.31933594 18.09838867 C8.46023824 20.44254782 7.08419439 20.49184114 3.4296875 20.4609375 C2.36878906 20.45707031 1.30789062 20.45320313 0.21484375 20.44921875 C-0.88730469 20.42472656 -1.98945313 20.40023438 -3.125 20.375 C-4.23488281 20.37371094 -5.34476563 20.37242188 -6.48828125 20.37109375 C-14.71913485 20.28086515 -14.71913485 20.28086515 -17 18 C-17.26991906 15.31160615 -17.08737357 12.70858064 -17 10 C-16.360625 9.773125 -15.72125 9.54625 -15.0625 9.3125 C-14.381875 8.879375 -13.70125 8.44625 -13 8 C-12.65846063 6.33499557 -12.32550502 4.66821323 -12 3 C-8.76545873 -0.75206788 -4.62696254 -0.73107932 0 0 Z " fill="#F9B004" transform="translate(17,5)"/>
</svg>
