<?xml version="1.0" encoding="UTF-8"?>
<svg version="1.1" xmlns="http://www.w3.org/2000/svg" width="50" height="50">
<path d="M0 0 C2.19921875 0.02734375 2.19921875 0.02734375 5.69921875 0.77734375 C6.04533203 1.68226562 6.04533203 1.68226562 6.3984375 2.60546875 C8.48649308 7.72244289 10.20996831 10.41040592 14.69921875 13.77734375 C14.69921875 15.09734375 14.69921875 16.41734375 14.69921875 17.77734375 C11.3245916 17.23010692 9.61686875 16.72244375 6.69921875 14.77734375 C7.07019162 19.13627498 7.881784 22.43654499 9.76171875 26.40234375 C11.31650189 29.68591102 12.17686001 32.07562397 11.69921875 35.77734375 C9.375 35.5625 9.375 35.5625 6.69921875 34.77734375 C5.1171875 32.7109375 5.1171875 32.7109375 3.88671875 30.21484375 C3.46777344 29.38855469 3.04882812 28.56226562 2.6171875 27.7109375 C2.16279297 26.75380859 2.16279297 26.75380859 1.69921875 25.77734375 C1.12171875 26.49921875 0.54421875 27.22109375 -0.05078125 27.96484375 C-0.79328125 28.89296875 -1.53578125 29.82109375 -2.30078125 30.77734375 C-2.96078125 31.70546875 -3.62078125 32.63359375 -4.30078125 33.58984375 C-4.96078125 34.31171875 -5.62078125 35.03359375 -6.30078125 35.77734375 C-7.62078125 35.77734375 -8.94078125 35.77734375 -10.30078125 35.77734375 C-9.8180879 30.70906361 -8.1532459 27.92638324 -5.30078125 23.77734375 C-3.7413644 19.95677247 -3.05831511 16.89926805 -3.30078125 12.77734375 C-3.75453125 13.43734375 -4.20828125 14.09734375 -4.67578125 14.77734375 C-5.21203125 15.43734375 -5.74828125 16.09734375 -6.30078125 16.77734375 C-6.96078125 16.77734375 -7.62078125 16.77734375 -8.30078125 16.77734375 C-8.61015625 17.76734375 -8.61015625 17.76734375 -8.92578125 18.77734375 C-10.82003302 22.9102567 -12.94140774 26.66173431 -16.30078125 29.77734375 C-20.05078125 30.15234375 -20.05078125 30.15234375 -23.30078125 29.77734375 C-23.96078125 30.43734375 -24.62078125 31.09734375 -25.30078125 31.77734375 C-26.30078125 30.77734375 -26.30078125 30.77734375 -26.73828125 28.21484375 C-26.11327226 23.30405886 -23.44892899 20.46892176 -20.30078125 16.77734375 C-17.99078125 17.10734375 -15.68078125 17.43734375 -13.30078125 17.77734375 C-11.68014914 15.08958773 -10.08490777 12.39585558 -8.5390625 9.6640625 C-3.41660184 1.15433577 -3.41660184 1.15433577 0 0 Z " fill="#FAAF04" transform="translate(30.30078125,12.22265625)"/>
<path d="M0 0 C3 0.25 3 0.25 5 2.25 C5.25 5.25 5.25 5.25 5 8.25 C3 10.25 3 10.25 0 10.5 C-3 10.25 -3 10.25 -5 8.25 C-5.25 5.25 -5.25 5.25 -5 2.25 C-3 0.25 -3 0.25 0 0 Z " fill="#F9AF04" transform="translate(36,1.75)"/>
<path d="M0 0 C1.98 0 3.96 0 6 0 C6 1.98 6 3.96 6 6 C4.02 6 2.04 6 0 6 C0 4.02 0 2.04 0 0 Z " fill="#FAAF04" transform="translate(7,42)"/>
</svg>
