<?xml version="1.0" encoding="UTF-8"?>
<svg version="1.1" xmlns="http://www.w3.org/2000/svg" width="64" height="64">
<path d="M0 0 C4.95 0 9.9 0 15 0 C15 1.65 15 3.3 15 5 C16.32 5 17.64 5 19 5 C19 3.35 19 1.7 19 0 C23.95 0 28.9 0 34 0 C35.28818731 6.03095497 36.56974489 12.06326647 37.84521484 18.09692383 C38.27992335 20.14874148 38.71643191 22.20017863 39.15478516 24.2512207 C39.78502958 27.20165066 40.40875974 30.15339437 41.03125 33.10546875 C41.22811401 34.02023483 41.42497803 34.93500092 41.62780762 35.87748718 C41.80799438 36.73800186 41.98818115 37.59851654 42.17382812 38.48510742 C42.33371216 39.23789474 42.49359619 39.99068207 42.6583252 40.76628113 C43 43 43 43 43 48 C35.08 48 27.16 48 19 48 C19 46.68 19 45.36 19 44 C17.68 44 16.36 44 15 44 C15 45.32 15 46.64 15 48 C7.08 48 -0.84 48 -9 48 C-8.33675359 41.3675359 -7.55876892 35.16705747 -6.15234375 28.7109375 C-5.97619034 27.88163727 -5.80003693 27.05233704 -5.61854553 26.19790649 C-5.0632261 23.58916649 -4.50050968 20.98208988 -3.9375 18.375 C-3.55614676 16.58994919 -3.17528314 14.8047937 -2.79492188 13.01953125 C-1.86892632 8.67845913 -0.93630055 4.33886064 0 0 Z M15 8 C15 11.96 15 15.92 15 20 C16.32 20 17.64 20 19 20 C19 16.04 19 12.08 19 8 C17.68 8 16.36 8 15 8 Z M15 24 C15 28.62 15 33.24 15 38 C16.32 38 17.64 38 19 38 C19 33.38 19 28.76 19 24 C17.68 24 16.36 24 15 24 Z " fill="#FAB004" transform="translate(15,8)"/>
</svg>
