<?xml version="1.0" encoding="UTF-8"?>
<svg version="1.1" xmlns="http://www.w3.org/2000/svg" width="50" height="50">
<path d="M0 0 C11.88 0 23.76 0 36 0 C36 9.9 36 19.8 36 30 C24.12 30 12.24 30 0 30 C0 20.1 0 10.2 0 0 Z M2 2 C2 5.63 2 9.26 2 13 C5.55717213 11.01231117 5.55717213 11.01231117 8.5 8.25 C10 7 10 7 12.35546875 7.13671875 C15.73644033 8.24040371 16.75689691 9.70077805 18.8125 12.5625 C19.41707031 13.38878906 20.02164062 14.21507812 20.64453125 15.06640625 C21.09183594 15.70449219 21.53914063 16.34257812 22 17 C22.60714844 16.50113281 23.21429687 16.00226562 23.83984375 15.48828125 C26 14 26 14 28.5625 14.1875 C31 15 31 15 34 17 C34 12.05 34 7.1 34 2 C23.44 2 12.88 2 2 2 Z " fill="#FAAF04" transform="translate(2,5)"/>
<path d="M0 0 C0.99 0 1.98 0 3 0 C3 9.9 3 19.8 3 30 C-8.88 30 -20.76 30 -33 30 C-33 29.01 -33 28.02 -33 27 C-21.78 27.33 -10.56 27.66 1 28 C0.67 18.76 0.34 9.52 0 0 Z " fill="#F9B005" transform="translate(45,15)"/>
<path d="M0 0 C0.99 0 1.98 0 3 0 C3 9.9 3 19.8 3 30 C-8.88 30 -20.76 30 -33 30 C-33 29.01 -33 28.02 -33 27 C-21.78 27.33 -10.56 27.66 1 28 C0.67 18.76 0.34 9.52 0 0 Z " fill="#F9B005" transform="translate(40,10)"/>
<path d="M0 0 C1.32 0 2.64 0 4 0 C4 1.32 4 2.64 4 4 C2.68 4 1.36 4 0 4 C0 2.68 0 1.36 0 0 Z " fill="#FAAF04" transform="translate(28,10)"/>
</svg>
