<?xml version="1.0" encoding="UTF-8"?>
<svg version="1.1" xmlns="http://www.w3.org/2000/svg" width="50" height="50">
<path d="M0 0 C1.98 0 3.96 0 6 0 C6 1.98 6 3.96 6 6 C6.33 5.67 6.66 5.34 7 5 C8.67542976 5.28604898 10.34385343 5.61781233 12 6 C12 6.66 12 7.32 12 8 C12.66 8 13.32 8 14 8 C14 8.99 14 9.98 14 11 C10.79192446 13.38314183 7.93619738 14.43768609 4 15 C3.67 15.99 3.34 16.98 3 18 C3.47050781 18.61359375 3.94101563 19.2271875 4.42578125 19.859375 C6.39008712 22.53044104 6.31653516 23.98110932 6.1875 27.25 C6.16042969 28.14203125 6.13335938 29.0340625 6.10546875 29.953125 C6.07066406 30.62859375 6.03585938 31.3040625 6 32 C8.97 32 11.94 32 15 32 C15 30.35 15 28.7 15 27 C14.21625 26.896875 13.4325 26.79375 12.625 26.6875 C10 26 10 26 8 23 C7.875 20.3125 7.875 20.3125 8 18 C9.32 18.33 10.64 18.66 12 19 C12.33 20.32 12.66 21.64 13 23 C13.66 23 14.32 23 15 23 C15 21.02 15 19.04 15 17 C16.98 17 18.96 17 21 17 C21 21.95 21 26.9 21 32 C23.97 32 26.94 32 30 32 C30 30.35 30 28.7 30 27 C29.21625 26.896875 28.4325 26.79375 27.625 26.6875 C25 26 25 26 23 23 C22.875 20.3125 22.875 20.3125 23 18 C24.32 18.33 25.64 18.66 27 19 C27.495 20.98 27.495 20.98 28 23 C28.66 23 29.32 23 30 23 C30 21.02 30 19.04 30 17 C31.98 17 33.96 17 36 17 C36 21.95 36 26.9 36 32 C36.99 32 37.98 32 39 32 C39 32.66 39 33.32 39 34 C22.5 34 6 34 -11 34 C-11 33.34 -11 32.68 -11 32 C-9.68 32 -8.36 32 -7 32 C-6.855625 31.2575 -6.71125 30.515 -6.5625 29.75 C-6 27 -6 27 -5.375 25.0625 C-4.85864825 22.22256539 -5.42647233 19.80391303 -6 17 C-7.32 17.33 -8.64 17.66 -10 18 C-9.39675174 11.60556845 -9.39675174 11.60556845 -7.8125 9.1875 C-5.3523769 7.57569521 -2.81242123 6.81247724 0 6 C0 4.02 0 2.04 0 0 Z M0 23 C-0.99 25.97 -1.98 28.94 -3 32 C-1.35 32 0.3 32 2 32 C2 29.36 2 26.72 2 24 C1.34 23.67 0.68 23.34 0 23 Z " fill="#FAAF04" transform="translate(11,9)"/>
<path d="M0 0 C0 3.3 0 6.6 0 10 C-1.32 10 -2.64 10 -4 10 C-4 8.68 -4 7.36 -4 6 C-4.66 6 -5.32 6 -6 6 C-6 7.98 -6 9.96 -6 12 C-7.32 12 -8.64 12 -10 12 C-10 10.68 -10 9.36 -10 8 C-9.01 8 -8.02 8 -7 8 C-7 6.02 -7 4.04 -7 2 C-4.35261084 0.5393715 -3.10551666 0 0 0 Z M-2 4 C-2.66 4.66 -3.32 5.32 -4 6 C-3.01 6 -2.02 6 -1 6 C-1.33 5.34 -1.66 4.68 -2 4 Z " fill="#FAAF04" transform="translate(37,6)"/>
<path d="M0 0 C1.65 0 3.3 0 5 0 C5 1.32 5 2.64 5 4 C3.68 4 2.36 4 1 4 C1 5.98 1 7.96 1 10 C-0.32 10 -1.64 10 -3 10 C-3 8.68 -3 7.36 -3 6 C-2.01 6 -1.02 6 0 6 C0 4.02 0 2.04 0 0 Z " fill="#F9AF04" transform="translate(41,12)"/>
</svg>
